<svg xmlns="http://www.w3.org/2000/svg" xmlns:xlink="http://www.w3.org/1999/xlink" width="488" zoomAndPan="magnify" viewBox="0 0 366 339.749992" height="453" preserveAspectRatio="xMidYMid meet" version="1.0"><defs><g/></defs><g fill="#a6a6a6" fill-opacity="1"><g transform="translate(4.873665, 333.847879)"><g><path d="M 31.589844 0.925781 C 42.363281 0.925781 49.140625 -3.65625 53.1875 -8.871094 L 47.335938 -15.355469 C 44.410156 -10.675781 38.804688 -8.238281 32.027344 -8.238281 C 21.011719 -8.238281 10.773438 -15.0625 10.773438 -31.835938 C 10.773438 -43.777344 15.941406 -55.769531 30.761719 -55.769531 C 38.464844 -55.769531 44.851562 -52.554688 47.335938 -48.652344 L 53.1875 -55.136719 C 49.238281 -60.15625 42.460938 -64.886719 31.882812 -64.886719 C 14.867188 -64.886719 1.609375 -52.652344 1.609375 -31.347656 C 1.609375 -10.140625 14.867188 0.925781 31.589844 0.925781 Z M 31.589844 0.925781 "/></g></g></g><g fill="#a6a6a6" fill-opacity="1"><g transform="translate(58.539842, 333.847879)"><g><path d="M 25.351562 -46.605469 C 11.796875 -46.605469 1.558594 -36.367188 1.558594 -22.863281 C 1.558594 -9.3125 11.796875 0.925781 25.351562 0.925781 C 38.855469 0.925781 49.09375 -9.3125 49.09375 -22.863281 C 49.09375 -36.367188 38.855469 -46.605469 25.351562 -46.605469 Z M 25.351562 -8.238281 C 16.820312 -8.238281 10.726562 -14.332031 10.726562 -22.863281 C 10.726562 -31.347656 16.820312 -37.488281 25.351562 -37.488281 C 33.832031 -37.488281 39.976562 -31.347656 39.976562 -22.863281 C 39.976562 -14.332031 33.832031 -8.238281 25.351562 -8.238281 Z M 25.351562 -8.238281 "/></g></g></g><g fill="#a6a6a6" fill-opacity="1"><g transform="translate(109.232682, 333.847879)"><g><path d="M 12.675781 0 L 12.675781 -68.542969 L 3.511719 -68.542969 L 3.511719 0 Z M 12.675781 0 "/></g></g></g><g fill="#38a9a6" fill-opacity="1"><g transform="translate(125.405286, 333.847879)"><g><path d="M 25.105469 -46.605469 C 19.453125 -46.605469 15.453125 -44.605469 12.675781 -41.777344 L 12.675781 -68.542969 L 3.511719 -68.542969 L 3.511719 0 L 12.675781 0 L 12.675781 -25.789062 C 12.675781 -30.710938 14.136719 -39.292969 23.058594 -39.390625 C 31.929688 -39.390625 33.148438 -31.152344 33.148438 -27.347656 L 33.148438 0 L 42.265625 0 L 42.265625 -28.226562 C 42.265625 -38.21875 36.808594 -46.703125 25.105469 -46.605469 Z M 25.105469 -46.605469 "/></g></g></g><g fill="#38a9a6" fill-opacity="1"><g transform="translate(170.687648, 333.847879)"><g><path d="M 46.507812 -22.863281 C 46.507812 -35.101562 38.171875 -46.605469 24.082031 -46.605469 C 10.773438 -46.605469 1.902344 -36.269531 1.609375 -23.207031 C 1.265625 -7.214844 13.796875 0.925781 25.546875 0.925781 C 32.320312 0.925781 38.367188 -1.753906 42.65625 -6.238281 L 36.710938 -13.164062 C 34.078125 -10.042969 30.03125 -8.238281 25.105469 -8.238281 C 18.085938 -8.238281 13.601562 -11.992188 11.652344 -17.355469 L 46.507812 -17.355469 Z M 10.921875 -25.59375 C 11.847656 -32.566406 16.964844 -37.488281 24.179688 -37.488281 C 31.785156 -37.488281 36.171875 -32.078125 37.195312 -25.59375 Z M 10.921875 -25.59375 "/></g></g></g><g fill="#38a9a6" fill-opacity="1"><g transform="translate(218.699625, 333.847879)"><g><path d="M 37.683594 -45.726562 L 36.320312 -39 C 33.003906 -43.632812 28.03125 -46.605469 21.792969 -46.605469 C 9.894531 -46.605469 1.753906 -36.027344 1.753906 -22.863281 C 1.753906 -10.335938 9.066406 0.925781 22.132812 0.925781 C 28.519531 0.925781 33.34375 -1.804688 36.515625 -5.898438 L 37.683594 0 L 44.996094 0 L 44.996094 -45.726562 Z M 35.832031 -20.769531 C 35.832031 -14.285156 30.664062 -8.238281 23.886719 -8.238281 C 17.015625 -8.238281 10.921875 -14.332031 10.921875 -23.058594 C 10.921875 -31.003906 15.941406 -37.488281 23.398438 -37.488281 C 31.835938 -37.488281 35.832031 -29.152344 35.832031 -23.109375 Z M 35.832031 -20.769531 "/></g></g></g><g fill="#38a9a6" fill-opacity="1"><g transform="translate(267.199033, 333.847879)"><g><path d="M 12.675781 0 L 12.675781 -68.542969 L 3.511719 -68.542969 L 3.511719 0 Z M 12.675781 0 "/></g></g></g><g fill="#38a9a6" fill-opacity="1"><g transform="translate(283.381747, 333.847879)"><g><path d="M 25.105469 -8.238281 C 20.523438 -8.335938 17.988281 -9.605469 17.988281 -15.648438 L 17.988281 -36.5625 L 27.691406 -36.5625 L 27.691406 -45.726562 L 17.988281 -45.726562 L 17.988281 -60.351562 L 8.824219 -58.5 L 8.824219 -45.726562 L 0.339844 -45.726562 L 0.339844 -36.5625 L 8.824219 -36.5625 L 8.824219 -14.722656 C 8.824219 -3.851562 14.675781 0.925781 24.667969 0.925781 C 27.105469 0.925781 29.398438 0.632812 31.589844 0 L 31.589844 -8.871094 C 29.6875 -8.484375 27.496094 -8.140625 25.105469 -8.238281 Z M 25.105469 -8.238281 "/></g></g></g><g fill="#38a9a6" fill-opacity="1"><g transform="translate(315.844661, 333.847879)"><g><path d="M 25.105469 -46.605469 C 19.453125 -46.605469 15.453125 -44.605469 12.675781 -41.777344 L 12.675781 -68.542969 L 3.511719 -68.542969 L 3.511719 0 L 12.675781 0 L 12.675781 -25.789062 C 12.675781 -30.710938 14.136719 -39.292969 23.058594 -39.390625 C 31.929688 -39.390625 33.148438 -31.152344 33.148438 -27.347656 L 33.148438 0 L 42.265625 0 L 42.265625 -28.226562 C 42.265625 -38.21875 36.808594 -46.703125 25.105469 -46.605469 Z M 25.105469 -46.605469 "/></g></g></g><path fill="#76aa5f" d="M 233.859375 106.398438 C 233.859375 151.503906 208.527344 167.246094 177.28125 167.246094 C 146.035156 167.246094 120.703125 151.503906 120.703125 106.398438 C 120.703125 61.296875 177.28125 3.917969 177.28125 3.917969 C 177.28125 3.917969 233.859375 61.296875 233.859375 106.398438 Z M 233.859375 106.398438 " fill-opacity="1" fill-rule="nonzero"/><path fill="#41563d" d="M 175.21875 160.351562 L 175.800781 122.601562 L 199.910156 75.902344 L 175.890625 116.683594 L 176.152344 99.707031 L 192.765625 65.929688 L 176.21875 95.222656 L 176.6875 64.6875 L 194.484375 37.792969 L 176.761719 59.894531 L 177.054688 3.917969 L 175.21875 78.015625 L 175.367188 74.957031 L 157.273438 45.648438 L 175.074219 80.832031 L 173.394531 114.925781 L 173.339844 114.019531 L 152.480469 83.160156 L 173.277344 117.210938 L 173.066406 121.476562 L 173.027344 121.539062 L 173.046875 121.890625 L 168.765625 208.382812 L 174.480469 208.382812 L 175.167969 163.707031 L 195.910156 129.742188 Z M 175.21875 160.351562 " fill-opacity="1" fill-rule="nonzero"/><path fill="#38a9a6" d="M 285.777344 165.96875 C 272.3125 209.003906 243.449219 216.425781 213.636719 207.042969 C 183.824219 197.660156 164.351562 175.039062 177.8125 132.003906 C 191.273438 88.96875 262.382812 51.199219 262.382812 51.199219 C 262.382812 51.199219 299.242188 122.929688 285.777344 165.96875 Z M 285.777344 165.96875 " fill-opacity="1" fill-rule="nonzero"/><path fill="#f2f2f2" d="M 213.726562 199.84375 L 225.546875 163.996094 L 262.492188 126.683594 L 227.398438 158.382812 L 232.71875 142.261719 L 258.652344 115.015625 L 234.117188 138.003906 L 243.679688 109.007812 L 268.6875 88.6875 L 245.175781 104.460938 L 262.167969 51.128906 L 238.292969 121.289062 L 239.351562 118.414062 L 230.832031 85.015625 L 237.324219 123.925781 L 225.535156 155.953125 L 225.761719 155.0625 L 215.0625 119.375 L 224.75 158.101562 L 223.273438 162.105469 L 223.21875 162.152344 L 223.128906 162.492188 L 193.234375 243.734375 L 198.683594 245.449219 L 212.671875 203.03125 L 242.605469 176.851562 Z M 213.726562 199.84375 " fill-opacity="1" fill-rule="nonzero"/><path fill="#38a9a6" d="M 178.90625 130.070312 C 193.898438 172.59375 175.25 195.898438 145.792969 206.351562 C 116.328125 216.796875 87.214844 210.425781 72.21875 167.902344 C 57.226562 125.375 91.5 52.363281 91.5 52.363281 C 91.5 52.363281 163.914062 87.546875 178.90625 130.070312 Z M 178.90625 130.070312 " fill-opacity="1" fill-rule="nonzero"/><path fill="#f2f2f2" d="M 141.558594 200.539062 L 129.550781 164.753906 L 136.761719 112.664062 L 127.671875 159.140625 L 122.273438 143.054688 L 126.710938 105.648438 L 120.851562 138.800781 L 111.140625 109.855469 L 118.980469 78.546875 L 109.617188 105.3125 L 91.28125 52.4375 L 114.183594 122.917969 L 113.308594 119.980469 L 86.503906 98.394531 L 114.988281 125.617188 L 124.730469 158.320312 L 124.378906 157.476562 L 94.457031 135.371094 L 125.382812 160.511719 L 126.601562 164.601562 L 126.585938 164.679688 L 126.722656 165 L 151.4375 247.976562 L 156.828125 246.0625 L 142.621094 203.722656 L 150.894531 164.765625 Z M 141.558594 200.539062 " fill-opacity="1" fill-rule="nonzero"/><path fill="#f2f2f2" d="M 274.359375 197.425781 L 274.359375 250.148438 L 83.097656 250.148438 L 83.097656 197.425781 L 178.726562 144.699219 L 178.925781 144.816406 Z M 274.359375 197.425781 " fill-opacity="1" fill-rule="nonzero"/><path fill="#000000" d="M 274.359375 197.425781 L 274.359375 250.148438 L 178.925781 250.148438 L 178.925781 144.816406 Z M 274.359375 197.425781 " fill-opacity="0.098" fill-rule="nonzero"/><path fill="#41563d" d="M 170.5625 176.96875 L 163.386719 179.84375 L 163.386719 168.535156 L 170.5625 165.207031 Z M 170.5625 176.96875 " fill-opacity="1" fill-rule="nonzero"/><path fill="#41563d" d="M 91.265625 208.597656 L 88.878906 209.558594 L 88.878906 202.695312 L 91.265625 201.585938 Z M 91.265625 208.597656 " fill-opacity="1" fill-rule="nonzero"/><path fill="#41563d" d="M 99.636719 205.65625 L 96.84375 206.761719 L 96.847656 199.324219 L 99.636719 198.019531 Z M 99.636719 205.65625 " fill-opacity="1" fill-rule="nonzero"/><path fill="#41563d" d="M 108.796875 201.859375 L 105.613281 203.128906 L 105.613281 195.105469 L 108.796875 193.621094 Z M 108.796875 201.859375 " fill-opacity="1" fill-rule="nonzero"/><path fill="#41563d" d="M 119.960938 197.210938 L 115.972656 198.808594 L 115.972656 190.472656 L 119.960938 188.613281 Z M 119.960938 197.210938 " fill-opacity="1" fill-rule="nonzero"/><path fill="#41563d" d="M 133.507812 191.730469 L 128.722656 193.644531 L 128.722656 184.558594 L 133.503906 182.347656 Z M 133.507812 191.730469 " fill-opacity="1" fill-rule="nonzero"/><path fill="#41563d" d="M 144.261719 187.636719 L 149.839844 185.40625 L 149.839844 174.804688 L 144.261719 177.390625 Z M 144.261719 187.636719 " fill-opacity="1" fill-rule="nonzero"/><path fill="#41563d" d="M 91.265625 222.519531 L 88.878906 223.152344 L 88.878906 216.191406 L 91.265625 215.394531 Z M 91.265625 222.519531 " fill-opacity="1" fill-rule="nonzero"/><path fill="#41563d" d="M 99.636719 220.414062 L 96.84375 221.15625 L 96.84375 213.667969 L 99.636719 212.730469 Z M 99.636719 220.414062 " fill-opacity="1" fill-rule="nonzero"/><path fill="#41563d" d="M 108.796875 217.878906 L 105.613281 218.734375 L 105.613281 210.714844 L 108.796875 209.652344 Z M 108.796875 217.878906 " fill-opacity="1" fill-rule="nonzero"/><path fill="#41563d" d="M 119.960938 214.933594 L 115.976562 215.988281 L 115.972656 207.339844 L 119.960938 206.011719 Z M 119.960938 214.933594 " fill-opacity="1" fill-rule="nonzero"/><path fill="#41563d" d="M 133.507812 211.140625 L 128.722656 212.414062 L 128.722656 203.121094 L 133.503906 201.523438 Z M 133.507812 211.140625 " fill-opacity="1" fill-rule="nonzero"/><path fill="#41563d" d="M 149.839844 206.914062 L 143.863281 208.507812 L 143.863281 198.058594 L 149.839844 196.074219 Z M 149.839844 206.914062 " fill-opacity="1" fill-rule="nonzero"/><path fill="#41563d" d="M 170.5625 201.4375 L 163.386719 203.34375 L 163.386719 191.730469 L 170.5625 189.347656 Z M 170.5625 201.4375 " fill-opacity="1" fill-rule="nonzero"/><path fill="#41563d" d="M 170.5625 225.46875 L 163.386719 226.441406 L 163.386719 214.929688 L 170.5625 213.5 Z M 170.5625 225.46875 " fill-opacity="1" fill-rule="nonzero"/><path fill="#41563d" d="M 91.265625 236.015625 L 88.878906 236.34375 L 88.878906 229.6875 L 91.265625 229.210938 Z M 91.265625 236.015625 " fill-opacity="1" fill-rule="nonzero"/><path fill="#41563d" d="M 99.636719 235.171875 L 96.847656 235.542969 L 96.847656 228.429688 L 99.636719 227.875 Z M 99.636719 235.171875 " fill-opacity="1" fill-rule="nonzero"/><path fill="#41563d" d="M 108.796875 233.910156 L 105.613281 234.339844 L 105.613281 226.316406 L 108.796875 225.671875 Z M 108.796875 233.910156 " fill-opacity="1" fill-rule="nonzero"/><path fill="#41563d" d="M 119.960938 232.222656 L 115.976562 232.757812 L 115.972656 224.207031 L 119.960938 223.40625 Z M 119.960938 232.222656 " fill-opacity="1" fill-rule="nonzero"/><path fill="#41563d" d="M 133.507812 230.535156 L 128.722656 231.171875 L 128.722656 221.671875 L 133.507812 220.707031 Z M 133.507812 230.535156 " fill-opacity="1" fill-rule="nonzero"/><path fill="#41563d" d="M 149.839844 228.429688 L 143.863281 229.226562 L 143.863281 218.722656 L 149.839844 217.527344 Z M 149.839844 228.429688 " fill-opacity="1" fill-rule="nonzero"/><path fill="#41563d" d="M 266.585938 208.597656 L 268.980469 209.558594 L 268.980469 202.695312 L 266.585938 201.585938 Z M 266.585938 208.597656 " fill-opacity="1" fill-rule="nonzero"/><path fill="#41563d" d="M 258.222656 205.65625 L 261.007812 206.761719 L 261.007812 199.324219 L 258.222656 198.019531 Z M 258.222656 205.65625 " fill-opacity="1" fill-rule="nonzero"/><path fill="#41563d" d="M 249.058594 201.859375 L 252.246094 203.128906 L 252.246094 195.105469 L 249.058594 193.617188 Z M 249.058594 201.859375 " fill-opacity="1" fill-rule="nonzero"/><path fill="#41563d" d="M 237.902344 197.210938 L 241.886719 198.808594 L 241.886719 190.472656 L 237.902344 188.613281 Z M 237.902344 197.210938 " fill-opacity="1" fill-rule="nonzero"/><path fill="#41563d" d="M 224.355469 191.730469 L 229.132812 193.644531 L 229.132812 184.5625 L 224.355469 182.34375 Z M 224.355469 191.730469 " fill-opacity="1" fill-rule="nonzero"/><path fill="#41563d" d="M 208.019531 185.40625 L 213.59375 187.636719 L 213.59375 177.390625 L 208.019531 174.804688 Z M 208.019531 185.40625 " fill-opacity="1" fill-rule="nonzero"/><path fill="#41563d" d="M 266.585938 222.523438 L 268.980469 223.152344 L 268.980469 216.191406 L 266.585938 215.394531 Z M 266.585938 222.523438 " fill-opacity="1" fill-rule="nonzero"/><path fill="#41563d" d="M 258.222656 220.414062 L 261.007812 221.15625 L 261.007812 213.667969 L 258.222656 212.730469 Z M 258.222656 220.414062 " fill-opacity="1" fill-rule="nonzero"/><path fill="#41563d" d="M 249.058594 217.882812 L 252.246094 218.734375 L 252.246094 210.714844 L 249.058594 209.648438 Z M 249.058594 217.882812 " fill-opacity="1" fill-rule="nonzero"/><path fill="#41563d" d="M 237.902344 214.933594 L 241.882812 215.988281 L 241.886719 207.339844 L 237.902344 206.011719 Z M 237.902344 214.933594 " fill-opacity="1" fill-rule="nonzero"/><path fill="#41563d" d="M 224.355469 211.140625 L 229.132812 212.410156 L 229.132812 203.121094 L 224.355469 201.523438 Z M 224.355469 211.140625 " fill-opacity="1" fill-rule="nonzero"/><path fill="#41563d" d="M 208.019531 206.914062 L 213.992188 208.507812 L 213.992188 198.058594 L 208.019531 196.074219 Z M 208.019531 206.914062 " fill-opacity="1" fill-rule="nonzero"/><path fill="#41563d" d="M 187.296875 201.4375 L 194.472656 203.339844 L 194.46875 191.730469 L 187.296875 189.347656 Z M 187.296875 201.4375 " fill-opacity="1" fill-rule="nonzero"/><path fill="#41563d" d="M 187.296875 225.46875 L 194.46875 226.441406 L 194.472656 214.933594 L 187.296875 213.5 Z M 187.296875 225.46875 " fill-opacity="1" fill-rule="nonzero"/><path fill="#41563d" d="M 266.585938 236.015625 L 268.980469 236.339844 L 268.980469 229.6875 L 266.585938 229.210938 Z M 266.585938 236.015625 " fill-opacity="1" fill-rule="nonzero"/><path fill="#41563d" d="M 258.222656 235.171875 L 261.007812 235.542969 L 261.007812 228.425781 L 258.222656 227.875 Z M 258.222656 235.171875 " fill-opacity="1" fill-rule="nonzero"/><path fill="#41563d" d="M 249.058594 233.914062 L 252.246094 234.339844 L 252.246094 226.316406 L 249.058594 225.671875 Z M 249.058594 233.914062 " fill-opacity="1" fill-rule="nonzero"/><path fill="#41563d" d="M 237.902344 232.222656 L 241.882812 232.757812 L 241.886719 224.207031 L 237.902344 223.40625 Z M 237.902344 232.222656 " fill-opacity="1" fill-rule="nonzero"/><path fill="#41563d" d="M 224.355469 230.535156 L 229.132812 231.175781 L 229.132812 221.675781 L 224.355469 220.707031 Z M 224.355469 230.535156 " fill-opacity="1" fill-rule="nonzero"/><path fill="#41563d" d="M 208.019531 228.429688 L 213.992188 229.226562 L 213.992188 218.726562 L 208.019531 217.527344 Z M 208.019531 228.429688 " fill-opacity="1" fill-rule="nonzero"/><path fill="#41563d" d="M 194.070312 179.921875 L 186.902344 177.0625 L 186.902344 165.167969 L 194.070312 168.492188 Z M 194.070312 179.921875 " fill-opacity="1" fill-rule="nonzero"/></svg>