<svg xmlns="http://www.w3.org/2000/svg" xmlns:xlink="http://www.w3.org/1999/xlink" width="500" zoomAndPan="magnify" viewBox="0 0 375 105.749996" height="141" preserveAspectRatio="xMidYMid meet" version="1.0"><defs><g/><clipPath id="0d7e5bd9d6"><path d="M 45 21 L 93.972656 21 L 93.972656 88 L 45 88 Z M 45 21 " clip-rule="nonzero"/></clipPath></defs><path fill="#76aa5f" d="M 70.246094 44.183594 C 70.246094 62.914062 59.710938 69.449219 46.710938 69.449219 C 33.714844 69.449219 23.175781 62.914062 23.175781 44.183594 C 23.175781 25.453125 46.710938 1.625 46.710938 1.625 C 46.710938 1.625 70.246094 25.453125 70.246094 44.183594 Z M 70.246094 44.183594 " fill-opacity="1" fill-rule="nonzero"/><path fill="#41563d" d="M 45.851562 66.585938 L 46.09375 50.910156 L 56.125 31.515625 L 46.132812 48.453125 L 46.242188 41.402344 L 53.152344 27.375 L 46.269531 39.542969 L 46.464844 26.859375 L 53.867188 15.691406 L 46.496094 24.871094 L 46.617188 1.625 L 45.851562 32.394531 L 45.914062 31.125 L 38.386719 18.953125 L 45.792969 33.566406 L 45.09375 47.722656 L 45.070312 47.347656 L 36.394531 34.53125 L 45.046875 48.671875 L 44.957031 50.445312 L 44.941406 50.46875 L 44.949219 50.613281 L 43.167969 86.53125 L 45.546875 86.535156 L 45.832031 67.980469 L 54.460938 53.875 Z M 45.851562 66.585938 " fill-opacity="1" fill-rule="nonzero"/><g clip-path="url(#0d7e5bd9d6)"><path fill="#38a9a6" d="M 91.84375 68.917969 C 86.242188 86.789062 74.238281 89.875 61.835938 85.976562 C 49.433594 82.082031 41.332031 72.6875 46.933594 54.816406 C 52.53125 36.945312 82.113281 21.257812 82.113281 21.257812 C 82.113281 21.257812 97.445312 51.046875 91.84375 68.917969 Z M 91.84375 68.917969 " fill-opacity="1" fill-rule="nonzero"/></g><path fill="#f2f2f2" d="M 61.871094 82.988281 L 66.789062 68.101562 L 82.15625 52.605469 L 67.558594 65.769531 L 69.773438 59.074219 L 80.5625 47.761719 L 70.351562 57.308594 L 74.332031 45.265625 L 84.734375 36.828125 L 74.953125 43.378906 L 82.023438 21.230469 L 72.089844 50.367188 L 72.53125 49.171875 L 68.988281 35.300781 L 71.6875 51.460938 L 66.785156 64.761719 L 66.878906 64.390625 L 62.429688 49.570312 L 66.457031 65.652344 L 65.84375 67.316406 L 65.820312 67.335938 L 65.78125 67.476562 L 53.347656 101.214844 L 55.613281 101.925781 L 61.433594 84.308594 L 73.886719 73.4375 Z M 61.871094 82.988281 " fill-opacity="1" fill-rule="nonzero"/><path fill="#38a9a6" d="M 47.386719 54.011719 C 53.625 71.671875 45.867188 81.347656 33.613281 85.6875 C 21.355469 90.027344 9.246094 87.378906 3.007812 69.722656 C -3.230469 52.0625 11.027344 21.742188 11.027344 21.742188 C 11.027344 21.742188 41.148438 36.351562 47.386719 54.011719 Z M 47.386719 54.011719 " fill-opacity="1" fill-rule="nonzero"/><path fill="#f2f2f2" d="M 31.851562 83.273438 L 26.855469 68.414062 L 29.855469 46.785156 L 26.074219 66.085938 L 23.828125 59.402344 L 25.675781 43.871094 L 23.238281 57.636719 L 19.199219 45.617188 L 22.457031 32.617188 L 18.5625 43.730469 L 10.9375 21.773438 L 20.464844 51.042969 L 20.097656 49.824219 L 8.949219 40.859375 L 20.796875 52.164062 L 24.851562 65.742188 L 24.703125 65.394531 L 12.257812 56.214844 L 25.121094 66.652344 L 25.628906 68.351562 L 25.625 68.382812 L 25.679688 68.519531 L 35.960938 102.976562 L 38.203125 102.179688 L 32.292969 84.597656 L 35.734375 68.417969 Z M 31.851562 83.273438 " fill-opacity="1" fill-rule="nonzero"/><path fill="#f2f2f2" d="M 87.09375 81.980469 L 87.09375 103.875 L 7.53125 103.875 L 7.53125 81.980469 L 47.3125 60.085938 L 47.394531 60.136719 Z M 87.09375 81.980469 " fill-opacity="1" fill-rule="nonzero"/><path fill="#000000" d="M 87.09375 81.980469 L 87.09375 103.875 L 47.394531 103.875 L 47.394531 60.136719 Z M 87.09375 81.980469 " fill-opacity="0.098" fill-rule="nonzero"/><path fill="#41563d" d="M 43.917969 73.488281 L 40.933594 74.679688 L 40.933594 69.984375 L 43.917969 68.601562 Z M 43.917969 73.488281 " fill-opacity="1" fill-rule="nonzero"/><path fill="#41563d" d="M 10.929688 86.621094 L 9.9375 87.023438 L 9.9375 84.171875 L 10.929688 83.710938 Z M 10.929688 86.621094 " fill-opacity="1" fill-rule="nonzero"/><path fill="#41563d" d="M 14.410156 85.402344 L 13.25 85.859375 L 13.25 82.769531 L 14.410156 82.230469 Z M 14.410156 85.402344 " fill-opacity="1" fill-rule="nonzero"/><path fill="#41563d" d="M 18.222656 83.824219 L 16.898438 84.351562 L 16.898438 81.019531 L 18.222656 80.402344 Z M 18.222656 83.824219 " fill-opacity="1" fill-rule="nonzero"/><path fill="#41563d" d="M 22.867188 81.894531 L 21.207031 82.558594 L 21.207031 79.09375 L 22.867188 78.324219 Z M 22.867188 81.894531 " fill-opacity="1" fill-rule="nonzero"/><path fill="#41563d" d="M 28.5 79.617188 L 26.511719 80.410156 L 26.511719 76.640625 L 28.5 75.722656 Z M 28.5 79.617188 " fill-opacity="1" fill-rule="nonzero"/><path fill="#41563d" d="M 32.976562 77.917969 L 35.296875 76.992188 L 35.296875 72.589844 L 32.976562 73.664062 Z M 32.976562 77.917969 " fill-opacity="1" fill-rule="nonzero"/><path fill="#41563d" d="M 10.929688 92.402344 L 9.9375 92.664062 L 9.9375 89.777344 L 10.929688 89.445312 Z M 10.929688 92.402344 " fill-opacity="1" fill-rule="nonzero"/><path fill="#41563d" d="M 14.410156 91.527344 L 13.25 91.835938 L 13.25 88.726562 L 14.410156 88.339844 Z M 14.410156 91.527344 " fill-opacity="1" fill-rule="nonzero"/><path fill="#41563d" d="M 18.222656 90.476562 L 16.898438 90.832031 L 16.898438 87.5 L 18.222656 87.058594 Z M 18.222656 90.476562 " fill-opacity="1" fill-rule="nonzero"/><path fill="#41563d" d="M 22.867188 89.253906 L 21.210938 89.691406 L 21.207031 86.097656 L 22.867188 85.546875 Z M 22.867188 89.253906 " fill-opacity="1" fill-rule="nonzero"/><path fill="#41563d" d="M 28.5 87.675781 L 26.511719 88.207031 L 26.511719 84.347656 L 28.5 83.683594 Z M 28.5 87.675781 " fill-opacity="1" fill-rule="nonzero"/><path fill="#41563d" d="M 35.296875 85.921875 L 32.808594 86.585938 L 32.808594 82.246094 L 35.296875 81.421875 Z M 35.296875 85.921875 " fill-opacity="1" fill-rule="nonzero"/><path fill="#41563d" d="M 43.917969 83.648438 L 40.933594 84.441406 L 40.933594 79.617188 L 43.917969 78.628906 Z M 43.917969 83.648438 " fill-opacity="1" fill-rule="nonzero"/><path fill="#41563d" d="M 43.917969 93.628906 L 40.933594 94.03125 L 40.933594 89.25 L 43.917969 88.65625 Z M 43.917969 93.628906 " fill-opacity="1" fill-rule="nonzero"/><path fill="#41563d" d="M 10.929688 98.007812 L 9.9375 98.144531 L 9.9375 95.378906 L 10.929688 95.179688 Z M 10.929688 98.007812 " fill-opacity="1" fill-rule="nonzero"/><path fill="#41563d" d="M 14.410156 97.65625 L 13.25 97.8125 L 13.25 94.859375 L 14.410156 94.628906 Z M 14.410156 97.65625 " fill-opacity="1" fill-rule="nonzero"/><path fill="#41563d" d="M 18.222656 97.132812 L 16.898438 97.3125 L 16.898438 93.980469 L 18.222656 93.710938 Z M 18.222656 97.132812 " fill-opacity="1" fill-rule="nonzero"/><path fill="#41563d" d="M 22.867188 96.433594 L 21.210938 96.65625 L 21.207031 93.105469 L 22.867188 92.773438 Z M 22.867188 96.433594 " fill-opacity="1" fill-rule="nonzero"/><path fill="#41563d" d="M 28.5 95.730469 L 26.511719 95.996094 L 26.511719 92.050781 L 28.5 91.652344 Z M 28.5 95.730469 " fill-opacity="1" fill-rule="nonzero"/><path fill="#41563d" d="M 35.296875 94.859375 L 32.808594 95.1875 L 32.808594 90.828125 L 35.296875 90.328125 Z M 35.296875 94.859375 " fill-opacity="1" fill-rule="nonzero"/><path fill="#41563d" d="M 83.859375 86.621094 L 84.855469 87.023438 L 84.855469 84.171875 L 83.859375 83.710938 Z M 83.859375 86.621094 " fill-opacity="1" fill-rule="nonzero"/><path fill="#41563d" d="M 80.382812 85.402344 L 81.539062 85.859375 L 81.539062 82.773438 L 80.382812 82.230469 Z M 80.382812 85.402344 " fill-opacity="1" fill-rule="nonzero"/><path fill="#41563d" d="M 76.570312 83.824219 L 77.894531 84.351562 L 77.894531 81.019531 L 76.570312 80.402344 Z M 76.570312 83.824219 " fill-opacity="1" fill-rule="nonzero"/><path fill="#41563d" d="M 71.929688 81.894531 L 73.585938 82.558594 L 73.585938 79.09375 L 71.929688 78.324219 Z M 71.929688 81.894531 " fill-opacity="1" fill-rule="nonzero"/><path fill="#41563d" d="M 66.292969 79.617188 L 68.28125 80.410156 L 68.28125 76.640625 L 66.292969 75.71875 Z M 66.292969 79.617188 " fill-opacity="1" fill-rule="nonzero"/><path fill="#41563d" d="M 59.496094 76.992188 L 61.816406 77.917969 L 61.816406 73.664062 L 59.496094 72.589844 Z M 59.496094 76.992188 " fill-opacity="1" fill-rule="nonzero"/><path fill="#41563d" d="M 83.859375 92.40625 L 84.855469 92.667969 L 84.855469 89.777344 L 83.859375 89.445312 Z M 83.859375 92.40625 " fill-opacity="1" fill-rule="nonzero"/><path fill="#41563d" d="M 80.382812 91.527344 L 81.539062 91.835938 L 81.539062 88.726562 L 80.382812 88.339844 Z M 80.382812 91.527344 " fill-opacity="1" fill-rule="nonzero"/><path fill="#41563d" d="M 76.570312 90.476562 L 77.894531 90.832031 L 77.894531 87.5 L 76.570312 87.058594 Z M 76.570312 90.476562 " fill-opacity="1" fill-rule="nonzero"/><path fill="#41563d" d="M 71.929688 89.253906 L 73.585938 89.691406 L 73.585938 86.097656 L 71.929688 85.546875 Z M 71.929688 89.253906 " fill-opacity="1" fill-rule="nonzero"/><path fill="#41563d" d="M 66.292969 87.675781 L 68.28125 88.207031 L 68.28125 84.347656 L 66.292969 83.683594 Z M 66.292969 87.675781 " fill-opacity="1" fill-rule="nonzero"/><path fill="#41563d" d="M 59.496094 85.921875 L 61.984375 86.585938 L 61.984375 82.246094 L 59.496094 81.421875 Z M 59.496094 85.921875 " fill-opacity="1" fill-rule="nonzero"/><path fill="#41563d" d="M 50.878906 83.648438 L 53.863281 84.4375 L 53.859375 79.617188 L 50.878906 78.628906 Z M 50.878906 83.648438 " fill-opacity="1" fill-rule="nonzero"/><path fill="#41563d" d="M 50.878906 93.628906 L 53.859375 94.03125 L 53.863281 89.253906 L 50.878906 88.65625 Z M 50.878906 93.628906 " fill-opacity="1" fill-rule="nonzero"/><path fill="#41563d" d="M 83.859375 98.007812 L 84.855469 98.144531 L 84.855469 95.378906 L 83.859375 95.179688 Z M 83.859375 98.007812 " fill-opacity="1" fill-rule="nonzero"/><path fill="#41563d" d="M 80.382812 97.65625 L 81.539062 97.8125 L 81.539062 94.855469 L 80.382812 94.628906 Z M 80.382812 97.65625 " fill-opacity="1" fill-rule="nonzero"/><path fill="#41563d" d="M 76.570312 97.132812 L 77.894531 97.3125 L 77.894531 93.980469 L 76.570312 93.710938 Z M 76.570312 97.132812 " fill-opacity="1" fill-rule="nonzero"/><path fill="#41563d" d="M 71.929688 96.433594 L 73.585938 96.65625 L 73.585938 93.105469 L 71.929688 92.773438 Z M 71.929688 96.433594 " fill-opacity="1" fill-rule="nonzero"/><path fill="#41563d" d="M 66.292969 95.730469 L 68.28125 96 L 68.28125 92.054688 L 66.292969 91.652344 Z M 66.292969 95.730469 " fill-opacity="1" fill-rule="nonzero"/><path fill="#41563d" d="M 59.496094 94.859375 L 61.984375 95.1875 L 61.984375 90.828125 L 59.496094 90.328125 Z M 59.496094 94.859375 " fill-opacity="1" fill-rule="nonzero"/><path fill="#41563d" d="M 53.695312 74.714844 L 50.714844 73.527344 L 50.714844 68.585938 L 53.695312 69.96875 Z M 53.695312 74.714844 " fill-opacity="1" fill-rule="nonzero"/><g fill="#a6a6a6" fill-opacity="1"><g transform="translate(104.66584, 86.725656)"><g><path d="M 23.929688 0.703125 C 32.089844 0.703125 37.222656 -2.769531 40.289062 -6.722656 L 35.859375 -11.632812 C 33.640625 -8.085938 29.394531 -6.242188 24.261719 -6.242188 C 15.917969 -6.242188 8.160156 -11.410156 8.160156 -24.113281 C 8.160156 -33.164062 12.074219 -42.246094 23.300781 -42.246094 C 29.136719 -42.246094 33.972656 -39.808594 35.859375 -36.855469 L 40.289062 -41.765625 C 37.296875 -45.570312 32.164062 -49.152344 24.152344 -49.152344 C 11.261719 -49.152344 1.21875 -39.882812 1.21875 -23.746094 C 1.21875 -7.679688 11.261719 0.703125 23.929688 0.703125 Z M 23.929688 0.703125 "/></g></g></g><g fill="#a6a6a6" fill-opacity="1"><g transform="translate(145.318365, 86.725656)"><g><path d="M 19.203125 -35.304688 C 8.9375 -35.304688 1.183594 -27.550781 1.183594 -17.320312 C 1.183594 -7.054688 8.9375 0.703125 19.203125 0.703125 C 29.433594 0.703125 37.1875 -7.054688 37.1875 -17.320312 C 37.1875 -27.550781 29.433594 -35.304688 19.203125 -35.304688 Z M 19.203125 -6.242188 C 12.742188 -6.242188 8.125 -10.855469 8.125 -17.320312 C 8.125 -23.746094 12.742188 -28.398438 19.203125 -28.398438 C 25.628906 -28.398438 30.28125 -23.746094 30.28125 -17.320312 C 30.28125 -10.855469 25.628906 -6.242188 19.203125 -6.242188 Z M 19.203125 -6.242188 "/></g></g></g><g fill="#a6a6a6" fill-opacity="1"><g transform="translate(183.718565, 86.725656)"><g><path d="M 9.601562 0 L 9.601562 -51.921875 L 2.660156 -51.921875 L 2.660156 0 Z M 9.601562 0 "/></g></g></g><g fill="#38a9a6" fill-opacity="1"><g transform="translate(195.969432, 86.725656)"><g><path d="M 19.019531 -35.304688 C 14.734375 -35.304688 11.707031 -33.789062 9.601562 -31.648438 L 9.601562 -51.921875 L 2.660156 -51.921875 L 2.660156 0 L 9.601562 0 L 9.601562 -19.535156 C 9.601562 -23.265625 10.710938 -29.765625 17.46875 -29.839844 C 24.1875 -29.839844 25.113281 -23.597656 25.113281 -20.71875 L 25.113281 0 L 32.015625 0 L 32.015625 -21.382812 C 32.015625 -28.953125 27.882812 -35.378906 19.019531 -35.304688 Z M 19.019531 -35.304688 "/></g></g></g><g fill="#38a9a6" fill-opacity="1"><g transform="translate(230.271155, 86.725656)"><g><path d="M 35.230469 -17.320312 C 35.230469 -26.589844 28.914062 -35.304688 18.242188 -35.304688 C 8.160156 -35.304688 1.441406 -27.476562 1.21875 -17.578125 C 0.960938 -5.464844 10.449219 0.703125 19.351562 0.703125 C 24.484375 0.703125 29.0625 -1.328125 32.3125 -4.726562 L 27.808594 -9.972656 C 25.8125 -7.605469 22.75 -6.242188 19.019531 -6.242188 C 13.699219 -6.242188 10.304688 -9.085938 8.824219 -13.148438 L 35.230469 -13.148438 Z M 8.273438 -19.386719 C 8.972656 -24.667969 12.851562 -28.398438 18.316406 -28.398438 C 24.078125 -28.398438 27.402344 -24.300781 28.175781 -19.386719 Z M 8.273438 -19.386719 "/></g></g></g><g fill="#38a9a6" fill-opacity="1"><g transform="translate(266.640582, 86.725656)"><g><path d="M 28.546875 -34.640625 L 27.511719 -29.542969 C 25 -33.050781 21.234375 -35.304688 16.507812 -35.304688 C 7.496094 -35.304688 1.328125 -27.289062 1.328125 -17.320312 C 1.328125 -7.828125 6.867188 0.703125 16.765625 0.703125 C 21.601562 0.703125 25.257812 -1.367188 27.660156 -4.46875 L 28.546875 0 L 34.085938 0 L 34.085938 -34.640625 Z M 27.144531 -15.730469 C 27.144531 -10.820312 23.226562 -6.242188 18.09375 -6.242188 C 12.886719 -6.242188 8.273438 -10.855469 8.273438 -17.46875 C 8.273438 -23.488281 12.074219 -28.398438 17.726562 -28.398438 C 24.113281 -28.398438 27.144531 -22.082031 27.144531 -17.503906 Z M 27.144531 -15.730469 "/></g></g></g><g fill="#38a9a6" fill-opacity="1"><g transform="translate(303.379241, 86.725656)"><g><path d="M 9.601562 0 L 9.601562 -51.921875 L 2.660156 -51.921875 L 2.660156 0 Z M 9.601562 0 "/></g></g></g><g fill="#38a9a6" fill-opacity="1"><g transform="translate(315.637766, 86.725656)"><g><path d="M 19.019531 -6.242188 C 15.546875 -6.316406 13.625 -7.273438 13.625 -11.855469 L 13.625 -27.695312 L 20.976562 -27.695312 L 20.976562 -34.640625 L 13.625 -34.640625 L 13.625 -45.71875 L 6.683594 -44.316406 L 6.683594 -34.640625 L 0.257812 -34.640625 L 0.257812 -27.695312 L 6.683594 -27.695312 L 6.683594 -11.152344 C 6.683594 -2.917969 11.117188 0.703125 18.6875 0.703125 C 20.53125 0.703125 22.269531 0.480469 23.929688 0 L 23.929688 -6.722656 C 22.488281 -6.425781 20.828125 -6.167969 19.019531 -6.242188 Z M 19.019531 -6.242188 "/></g></g></g><g fill="#38a9a6" fill-opacity="1"><g transform="translate(340.228663, 86.725656)"><g><path d="M 19.019531 -35.304688 C 14.734375 -35.304688 11.707031 -33.789062 9.601562 -31.648438 L 9.601562 -51.921875 L 2.660156 -51.921875 L 2.660156 0 L 9.601562 0 L 9.601562 -19.535156 C 9.601562 -23.265625 10.710938 -29.765625 17.46875 -29.839844 C 24.1875 -29.839844 25.113281 -23.597656 25.113281 -20.71875 L 25.113281 0 L 32.015625 0 L 32.015625 -21.382812 C 32.015625 -28.953125 27.882812 -35.378906 19.019531 -35.304688 Z M 19.019531 -35.304688 "/></g></g></g></svg>